# xmcd
#
# Track frame offsets:
#	182
#	20392
#	34182
#	50695
#	64797
#	85550
#	98945
#	112225
#	125465
#	133785
#	144232
#	158295
#	178265
#	192557
#	203595
#	215447
#	230992
#	253040
#	263512
#	276085
#	294145
#	308615
#	324227
#
# Disc length: 4473
#
# Revision: 10
# Processed by: cddbd v1.5.1PL0 Copyright (c) Steve Scherf et al.
# Submitted via: ExactAudioCopy v0.95a5
# Normalized: r9:DSETVAR1
#
DISCID=49117717
DTITLE=Various Artist - Atlantic Blues- Vocalists
DYEAR=1986
DGENRE=Blues
TTITLE0=Sippie Wallace - Suitcase Blues
TTITLE1=Jimmy Witherspoon - Trouble In Mind
TTITLE2=Jimmy Witherspoon - In the Evenin'
TTITLE3=LaVern Baker - Gimme a Pigfoot
TTITLE4=Mama Yancey - How Long Blues
TTITLE5=Joe Turner - Oke-She-Moke-She-Pop
TTITLE6=Lil Green - I've Got That Feelin'
TTITLE7=Lil Green - Every Time
TTITLE8=Wynonie Harris - Destination Love
TTITLE9=Wynonie Harris - Tell a Whale of a Tale
TTITLE10=Ruth Brown - Rain Is a Bringdown
TTITLE11=Percy Mayfield - Nothing Stays the Same Forever
TTITLE12=Ted Taylor - River's Invitation
TTITLE13=Esther Phillips - Just Like a Fish
TTITLE14=Otis Clay - Pouring Water On a Drowning Man
TTITLE15=Rufus Thomas - Did You Ever Love a Woman
TTITLE16=Titus Turner - Baby Girl Parts 1 and 2
TTITLE17=Bobby Bland - Ain't That Lovin' You
TTITLE18=Johnny Copeland - It's My Own Tears That's Being Wasted
TTITLE19=Eldridge Holmes - Cheatin' Woman
TTITLE20=Johnny Taylor - I Had a Dream
TTITLE21=Aretha Franklin - Takin' Another Man's Place
TTITLE22=Z. Z. Hill - It's a Hang-Up Baby
EXTD=LABEL =Atlantic Recording Corporation\nID =781696-2\nUPC =07567-81696-25\nCOPYRIGHT =1986\n*****\nDue to time restrictions, the following songs included in the album package are NOT included on this cd ...\n- Sippie Wallace - You G
EXTD=ot To Know\n- Mama Yancey - Make Me a Pallet On the Floor\n- Joe Turner - St. louis Blues\n- Ruth Brown - R. B. Blues\n- Percy Mayfield - I Don't Want To Be Presiden\n- Z. Z. Hill - Home Ain't Home At Suppertimet\n*****\nYEAR: 1991
EXTT0=
EXTT1=
EXTT2=
EXTT3=
EXTT4=
EXTT5=
EXTT6=
EXTT7=
EXTT8=
EXTT9=
EXTT10=
EXTT11=
EXTT12=
EXTT13=
EXTT14=
EXTT15=
EXTT16=
EXTT17=
EXTT18=
EXTT19=
EXTT20=
EXTT21=
EXTT22=
PLAYORDER=
